<svg width="1073" height="691" viewBox="0 0 1073 691" fill="none" xmlns="http://www.w3.org/2000/svg">
<rect width="1073" height="691" fill="white"/>
<path d="M197.121 150.5H272.078H291.029C299.806 150.5 302 156.558 302 159.587V387.782C302 446.345 259.112 461.995 237.668 462.5H177.325C123.465 462.5 110 422.112 110 401.917V376.17C110 364.457 115.319 361.529 117.979 361.529H160.868C169.345 361.529 171.34 362.539 171.34 384.752C171.34 399.696 187.299 403.432 195.278 403.432H220.712C233.079 403.432 236.171 399.898 236.171 390.811V218.655C236.171 210.174 229.522 208.39 226.197 208.558H170.738C168.501 208.558 167.051 206.198 168.062 204.202L194.445 152.144C194.956 151.135 195.99 150.5 197.121 150.5Z" fill="black" stroke="black"/>
<path d="M387.944 462.5H323.615C320.151 462.5 317.721 459.108 318.895 455.85C351.781 364.528 413.768 192.635 416.5 186C420 177.5 428.5 150 463 150C490.6 150 504.5 171 508 181.5L605.139 455.831C606.291 459.085 603.877 462.5 600.425 462.5H533.082C531.83 462.5 530.71 461.722 530.272 460.549L517.728 426.951C517.29 425.778 516.17 425 514.918 425H406.556C405.317 425 404.205 425.762 403.758 426.918L390.742 460.582C390.295 461.738 389.183 462.5 387.944 462.5Z" fill="black" stroke="black"/>
<path d="M493.87 371H430.538C427.097 371 424.684 367.604 425.817 364.354L456.87 275.281C458.419 270.838 464.689 270.8 466.292 275.224L498.571 364.296C499.752 367.557 497.337 371 493.87 371Z" fill="white" stroke="black"/>
<path d="M638 456.5V158C638 155.239 640.239 153 643 153H720.239C722.221 153 724.016 154.17 724.815 155.984L796.756 319.236C798.535 323.271 804.287 323.196 805.959 319.115L872.728 156.105C873.498 154.227 875.326 153 877.355 153H953.588C956.315 153 958.539 155.185 958.588 157.911L963.909 456.411C963.959 459.207 961.706 461.5 958.91 461.5H898C895.239 461.5 893 459.261 893 456.5V321.251C893 315.796 885.509 314.283 883.392 319.31L824.789 458.441C824.008 460.295 822.192 461.5 820.181 461.5H780.792C778.794 461.5 776.988 460.311 776.199 458.476L716.093 318.793C713.945 313.802 706.5 315.336 706.5 320.77V456.5C706.5 459.261 704.261 461.5 701.5 461.5H643C640.239 461.5 638 459.261 638 456.5Z" fill="black" stroke="black"/>
<path d="M534.555 498.5H505.154C503.479 498.5 502.546 500.437 503.591 501.747L537.46 544.197C538.062 544.952 538.039 546.029 537.405 546.757L500.886 588.686C499.759 589.981 500.678 592 502.394 592H530.661C531.198 592 531.712 591.784 532.088 591.401L556.937 566.092C557.771 565.242 559.158 565.305 559.912 566.226L580.4 591.266C580.78 591.731 581.348 592 581.948 592H612.641C614.352 592 615.273 589.992 614.158 588.696L578.116 546.797C577.474 546.05 577.471 544.947 578.109 544.197L614.195 501.796C615.3 500.498 614.377 498.5 612.672 498.5H581.959C581.353 498.5 580.779 498.775 580.4 499.247L560.042 524.581C559.247 525.571 557.743 525.579 556.937 524.598L536.1 499.231C535.72 498.768 535.153 498.5 534.555 498.5Z" fill="black" stroke="black"/>
</svg>
